<?xml version="1.0" encoding="UTF-8" standalone="no"?>
<!-- Created with Inkscape (http://www.inkscape.org/) -->

<svg
   width="44.031376mm"
   height="44.809113mm"
   viewBox="0 0 44.031376 44.809113"
   version="1.1"
   id="svg5"
   inkscape:version="1.1 (c68e22c387, 2021-05-23)"
   sodipodi:docname="kablys_logo.svg"
   inkscape:export-filename="C:\Users\John\Desktop\vienamgale_logo.png"
   inkscape:export-xdpi="356.88797"
   inkscape:export-ydpi="356.88797"
   xmlns:inkscape="http://www.inkscape.org/namespaces/inkscape"
   xmlns:sodipodi="http://sodipodi.sourceforge.net/DTD/sodipodi-0.dtd"
   xmlns="http://www.w3.org/2000/svg"
   xmlns:svg="http://www.w3.org/2000/svg">
  <sodipodi:namedview
     id="namedview7"
     pagecolor="#ffffff"
     bordercolor="#999999"
     borderopacity="1"
     inkscape:pageshadow="0"
     inkscape:pageopacity="0"
     inkscape:pagecheckerboard="0"
     inkscape:document-units="mm"
     showgrid="false"
     fit-margin-top="0"
     fit-margin-left="0"
     fit-margin-right="0"
     fit-margin-bottom="0"
     showguides="true"
     inkscape:guide-bbox="true"
     inkscape:zoom="0.65512531"
     inkscape:cx="-395.34422"
     inkscape:cy="267.88768"
     inkscape:window-width="1366"
     inkscape:window-height="705"
     inkscape:window-x="-8"
     inkscape:window-y="-8"
     inkscape:window-maximized="1"
     inkscape:current-layer="layer1" />
  <defs
     id="defs2" />
  <g
     inkscape:label="Layer 1"
     inkscape:groupmode="layer"
     id="layer1"
     transform="translate(-149.13083,-125.97822)">
    <path
       style="fill:#00923f;fill-opacity:1;stroke:#00923f;stroke-width:0.264583px;stroke-linecap:butt;stroke-linejoin:miter;stroke-opacity:1"
       d="m 162.00431,126.11051 h 30.98262 l -12.69822,44.54453 H 149.3061 Z"
       id="path29022" />
    <path
       style="fill:#ffffff;fill-opacity:1;stroke:#00923f;stroke-width:0.264583px;stroke-linecap:butt;stroke-linejoin:miter;stroke-opacity:1"
       d="m 185.53103,131.8851 -5.56875,4.06947 c -0.36822,0.42744 -0.53858,0.9162 -0.78534,1.42355 -0.22828,0.46936 -0.45562,1.01631 -0.64255,1.50362 -0.22372,0.58323 -0.40256,1.18336 -0.57115,1.78485 -0.19161,0.68362 -0.34035,1.37859 -0.49976,2.07043 -0.2243,0.97345 -0.45544,1.9459 -0.64255,2.92717 -0.16709,0.87624 -0.29015,1.76032 -0.42836,2.64158 -0.12307,0.78471 -0.22364,1.57298 -0.35698,2.35601 -0.15044,0.88343 -0.31183,1.76536 -0.49975,2.64159 -0.1283,0.59824 -0.25383,1.19843 -0.42837,1.78485 -0.20185,0.67817 -0.41979,1.35551 -0.71394,1.99904 -0.26138,0.57183 -0.57726,1.12034 -0.92813,1.64207 -0.40653,0.60448 -0.61403,0.97585 -1.07883,1.53677 -0.31872,0.38463 -0.88721,0.97572 -1.25933,1.30896 -0.23171,0.2075 -0.40537,0.38705 -0.66697,0.55532 -0.37884,0.24368 -0.84321,0.49922 -1.26067,0.66842 -0.38518,0.15612 -0.55333,0.25659 -0.96128,0.33606 -0.41957,0.0817 -0.99331,0.25533 -1.4187,0.2973 -0.55114,0.0544 -1.05563,0.0182 -1.60944,0.0209 -0.35716,0.002 -0.86932,-0.0826 -1.22236,-0.13667 -0.32959,-0.0505 -0.65262,-0.14799 -0.96382,-0.26773 -0.33524,-0.12899 -0.66029,-0.28984 -0.96382,-0.48191 -0.21079,-0.13339 -0.40055,-0.29821 -0.58901,-0.46163 -0.19297,-0.16733 -0.3767,-0.34556 -0.5533,-0.53008 -0.28695,-0.29982 -0.56733,-0.60751 -0.82104,-0.93593 -0.27238,-0.35258 -0.55241,-0.7071 -0.74964,-1.10661 -0.1166,-0.23618 -0.18986,-0.49317 -0.24988,-0.74964 -0.0985,-0.4211 -0.14144,-0.87807 -0.128,-1.31034 0.013,-0.41868 0.0826,-0.80405 0.1994,-1.20631 0.12082,-0.41594 0.30396,-0.7465 0.4893,-1.13797 0.1642,-0.34683 0.37166,-0.69697 0.57116,-1.02477 0.25052,-0.41163 0.52671,-0.8426 0.76009,-1.26418 l 0.55331,-0.99952 1.57067,1.92764 0.002,-9.2305 -5.14931,8.43072 c -0.26355,0.51804 -0.5161,1.01592 -0.70676,1.56499 -0.17819,0.51314 -0.33473,0.96572 -0.47959,1.48925 -0.0882,0.31864 -0.20046,0.71344 -0.27766,1.03491 -0.0925,0.38513 -0.15962,0.76731 -0.20193,1.16112 -0.0324,0.30117 -0.0159,0.60622 0,0.9087 0.0169,0.32105 0.0429,0.64298 0.10096,0.95918 0.0684,0.37235 0.18375,0.73474 0.29028,1.09802 0.0386,0.13149 0.0756,0.26389 0.12621,0.39124 0.0723,0.18187 0.21339,0.40652 0.30289,0.58056 0.12315,0.23947 0.29822,0.45368 0.44174,0.68152 0.16239,0.2578 0.31702,0.42901 0.50484,0.66891 0.24275,0.31007 0.4616,0.52129 0.74462,0.79511 0.23657,0.22888 0.4957,0.47878 0.74463,0.69414 0.25213,0.21813 0.57512,0.42973 0.85822,0.60581 0.38215,0.23769 0.87763,0.46492 1.31256,0.58056 0.46923,0.12476 0.7547,0.22039 1.23685,0.27766 0.62864,0.0747 1.20958,0.0758 1.84264,0.0757 0.4727,-8e-5 0.9929,7.3e-4 1.46402,-0.0379 0.40391,-0.0331 0.83774,-0.081 1.23683,-0.15145 0.37789,-0.0667 0.72056,-0.13349 1.0854,-0.25242 0.35954,-0.1172 0.71668,-0.24566 1.06015,-0.40387 0.38302,-0.17643 0.74847,-0.38976 1.11063,-0.6058 0.34473,-0.20564 0.68064,-0.42635 1.00967,-0.65628 0.34484,-0.24098 0.68286,-0.49234 1.00967,-0.75725 0.27792,-0.22528 0.54301,-0.46611 0.80773,-0.70677 0.30828,-0.28026 0.62128,-0.55659 0.9087,-0.85821 0.16054,-0.16847 0.31522,-0.34353 0.45435,-0.53008 0.18557,-0.24882 0.33975,-0.51963 0.50483,-0.78249 0.18879,-0.30062 0.37718,-0.60165 0.55532,-0.9087 0.19275,-0.33224 0.38012,-0.66785 0.55532,-1.00967 0.17853,-0.34832 0.35032,-0.70053 0.50483,-1.06015 0.18504,-0.4307 0.29298,-0.83875 0.4291,-1.28732 0.1553,-0.51175 0.31701,-1.06732 0.42912,-1.59023 0.0675,-0.3146 0.13603,-0.62912 0.19207,-0.94596 0.0555,-0.31402 0.11892,-0.62797 0.14279,-0.94597 0.0258,-0.34411 0.10531,-0.91796 0.12621,-1.2624 0.0417,-0.68798 0.10636,-1.1677 0.1994,-1.85064 0.10234,-0.75118 0.19701,-1.50424 0.33912,-2.24892 0.12363,-0.64785 0.22368,-1.25941 0.37048,-1.90241 0.21932,-0.96067 0.41709,-1.92634 0.64926,-2.88398 0.2041,-0.84187 0.41731,-1.68183 0.65369,-2.51521 0.17666,-0.62281 0.35318,-1.24667 0.57115,-1.85625 0.19046,-0.53264 0.31534,-1.10924 0.64255,-1.57067 l 3.78389,-3.35553 c 0.14355,-0.1273 0.22491,-0.31774 0.28558,-0.49976 0.0607,-0.18202 0.0804,-0.3795 0.0714,-0.57115 -0.0103,-0.21916 0.0284,-0.50526 -0.14278,-0.64255 -0.0743,-0.0596 -0.20893,-0.0562 -0.28588,0 z"
       id="path29024"
       sodipodi:nodetypes="scsssssssssssssssssssssssssssssssccccsssssssssssssssssssssssssssssssssssssssssscssscss" />
  </g>
</svg>
