<?xml version="1.0" encoding="UTF-8" standalone="no"?>
<!-- Created with Inkscape (http://www.inkscape.org/) -->

<svg
   width="176.3889mm"
   height="117.475mm"
   viewBox="0 0 176.3889 117.475"
   version="1.1"
   id="svg5"
   inkscape:version="1.1 (c68e22c387, 2021-05-23)"
   sodipodi:docname="vienamgale_logo.svg"
   xmlns:inkscape="http://www.inkscape.org/namespaces/inkscape"
   xmlns:sodipodi="http://sodipodi.sourceforge.net/DTD/sodipodi-0.dtd"
   xmlns="http://www.w3.org/2000/svg"
   xmlns:svg="http://www.w3.org/2000/svg">
  <sodipodi:namedview
     id="namedview7"
     pagecolor="#ffffff"
     bordercolor="#999999"
     borderopacity="1"
     inkscape:pageshadow="0"
     inkscape:pageopacity="0"
     inkscape:pagecheckerboard="0"
     inkscape:document-units="mm"
     showgrid="false"
     fit-margin-top="0"
     fit-margin-left="0"
     fit-margin-right="0"
     fit-margin-bottom="0"
     showguides="true"
     inkscape:guide-bbox="true"
     inkscape:zoom="2.6205012"
     inkscape:cx="512.68818"
     inkscape:cy="253.95905"
     inkscape:window-width="1366"
     inkscape:window-height="705"
     inkscape:window-x="-8"
     inkscape:window-y="-8"
     inkscape:window-maximized="1"
     inkscape:current-layer="layer1" />
  <defs
     id="defs2" />
  <g
     inkscape:label="Layer 1"
     inkscape:groupmode="layer"
     id="layer1"
     transform="translate(-16.61228,-89.762505)">
    <path
       style="fill:#3d986c;stroke:#3d986c;stroke-width:0.264583px;stroke-linecap:butt;stroke-linejoin:miter;stroke-opacity:1;fill-opacity:1"
       d="m 110.28361,163.87418 0.92367,-0.0402 c 0.007,-0.4668 0.0249,-0.31221 0.007,-0.4668 -0.0139,-0.12061 -0.0462,-0.2395 -0.0883,-0.35338 -0.062,-0.16764 -0.12577,-0.34196 -0.2398,-0.4796 -0.1186,-0.14315 -0.27136,-0.26823 -0.44374,-0.33783 -0.24232,-0.0978 -0.51741,-0.0984 -0.77864,-0.0913 -0.20974,0.006 -0.37834,0.0328 -0.58456,0.0716 -0.1561,0.0293 -0.3534,0.0761 -0.50267,0.1304 -0.15746,0.0572 -0.30323,0.14553 -0.44173,0.2398 -0.14071,0.0958 -0.27903,0.20015 -0.39124,0.32814 -0.10848,0.12374 -0.19136,0.26935 -0.26504,0.41649 -0.0745,0.14881 -0.14321,0.30395 -0.17669,0.46697 -0.039,0.18974 -0.0412,0.38752 -0.0252,0.58056 0.0117,0.14143 0.0375,0.28397 0.0883,0.41648 0.0452,0.11791 0.10746,0.23198 0.18931,0.32814 0.095,0.11157 0.22202,0.19182 0.34076,0.27766 0.19011,0.13742 0.40173,0.24309 0.59318,0.37863 0.10028,0.071 0.19746,0.14666 0.29028,0.22717 0.11014,0.0955 0.2156,0.19674 0.31553,0.3029 0.0757,0.0804 0.11999,0.12184 0.16885,0.22087 0.028,0.0568 0.0638,0.13128 0.0678,0.21346 0.004,0.0745 -0.0122,0.15368 -0.0353,0.22457 -0.0239,0.0735 -0.0517,0.1437 -0.0879,0.21194 -0.0367,0.0691 -0.0859,0.13165 -0.13883,0.18931 -0.0605,0.0659 -0.12528,0.13061 -0.20193,0.1767 -0.081,0.0487 -0.15035,0.0955 -0.2398,0.12618 -0.0957,0.0327 -0.19811,0.0652 -0.29658,0.0883 -0.14949,0.035 -0.31975,0.0505 -0.47329,0.0505 -0.10236,-1e-5 -0.20731,-0.0139 -0.30289,-0.0505 -0.10244,-0.0393 -0.19785,-0.10143 -0.27767,-0.17669 -0.068,-0.0641 -0.11013,-0.11305 -0.16406,-0.18932 -0.0384,-0.0543 -0.0641,-0.12738 -0.0883,-0.18931 -0.0326,-0.0831 -0.0596,-0.18849 -0.0631,-0.27766 -0.003,-0.0674 0,0 0.0126,-0.20193 h -0.83298 c 0,0.45435 -0.0132,0.30348 0,0.45435 0.0127,0.14469 0.0415,0.28795 0.0757,0.42911 0.0301,0.12415 0.0835,0.26041 0.14514,0.37232 0.072,0.13071 0.15392,0.22824 0.25873,0.33445 0.0628,0.0637 0.13012,0.12337 0.20193,0.17669 0.0956,0.071 0.19367,0.14194 0.30291,0.18931 0.15027,0.0652 0.31247,0.105 0.47488,0.12621 0.18509,0.0242 0.37436,0.0195 0.56,0 0.1845,-0.0194 0.36957,-0.0537 0.54438,-0.11581 0.14194,-0.0505 0.30772,-0.12777 0.44007,-0.19971 0.14074,-0.0765 0.24719,-0.15453 0.37862,-0.24611 0.0809,-0.0564 0.18131,-0.16551 0.24611,-0.23979 0.0783,-0.0897 0.15735,-0.18326 0.22086,-0.28397 0.0878,-0.13919 0.13846,-0.23904 0.21456,-0.38494 0.0759,-0.14547 0.14307,-0.29693 0.18931,-0.45435 0.0214,-0.0728 0.0341,-0.14846 0.04,-0.22411 0.006,-0.079 10e-4,-0.15865 -0.005,-0.23763 -0.007,-0.0914 -0.0148,-0.18369 -0.0379,-0.27243 -0.0229,-0.0881 -0.0566,-0.17395 -0.0988,-0.25459 -0.0467,-0.0892 -0.10344,-0.17405 -0.1693,-0.25024 -0.0751,-0.0869 -0.1672,-0.1578 -0.25458,-0.23241 -0.12011,-0.10255 -0.20343,-0.17191 -0.33464,-0.25981 -0.072,-0.0482 -0.18664,-0.1208 -0.26287,-0.1619 -0.0878,-0.0474 -0.2372,-0.10543 -0.32751,-0.14775 -0.11489,-0.0539 -0.18746,-0.095 -0.33094,-0.19951 -0.0755,-0.055 -0.20692,-0.19639 -0.26287,-0.27116 -0.0454,-0.0607 -0.0651,-0.13946 -0.0757,-0.21456 -0.01,-0.0709 -0.0307,-0.17902 -0.0231,-0.25025 0.0145,-0.13548 0.0493,-0.24121 0.0988,-0.36817 0.022,-0.0565 0.0636,-0.10363 0.10096,-0.15145 0.0385,-0.0493 0.11456,-0.11722 0.16637,-0.15222 0.10039,-0.0678 0.19247,-0.0951 0.30953,-0.12621 0.12365,-0.0329 0.21946,-0.0518 0.31615,-0.0542 0.0858,-0.002 0.21361,-5.4e-4 0.29705,0.0193 0.10621,0.0255 0.19916,0.0501 0.29767,0.0973 0.0653,0.0313 0.15266,0.10147 0.20346,0.15298 0.0467,0.0474 0.0789,0.10728 0.11359,0.16407 0.0372,0.061 0.0489,0.11199 0.0697,0.18039 z"
       id="path15800-6"
       sodipodi:nodetypes="ccssssssssssssssssssssssssssssssssccssssssssssssssssssssssssssssssssssssscc" />
    <path
       style="fill:#3d986c;stroke:#3d986c;stroke-width:0.264583px;stroke-linecap:butt;stroke-linejoin:miter;stroke-opacity:1;fill-opacity:1"
       d="m 142.36962,163.87418 0.92367,-0.0402 c 0.007,-0.4668 0.0249,-0.31221 0.007,-0.4668 -0.0139,-0.12061 -0.0462,-0.2395 -0.0883,-0.35338 -0.062,-0.16764 -0.12577,-0.34196 -0.2398,-0.4796 -0.1186,-0.14315 -0.27136,-0.26823 -0.44374,-0.33783 -0.24232,-0.0978 -0.51741,-0.0984 -0.77864,-0.0913 -0.20974,0.006 -0.37834,0.0328 -0.58456,0.0716 -0.1561,0.0293 -0.3534,0.0761 -0.50267,0.1304 -0.15746,0.0572 -0.30323,0.14553 -0.44173,0.2398 -0.14071,0.0958 -0.27903,0.20015 -0.39124,0.32814 -0.10848,0.12374 -0.19136,0.26935 -0.26504,0.41649 -0.0745,0.14881 -0.14321,0.30395 -0.17669,0.46697 -0.039,0.18974 -0.0412,0.38752 -0.0252,0.58056 0.0117,0.14143 0.0375,0.28397 0.0883,0.41648 0.0452,0.11791 0.10746,0.23198 0.18931,0.32814 0.095,0.11157 0.22202,0.19182 0.34076,0.27766 0.19011,0.13742 0.40173,0.24309 0.59318,0.37863 0.10028,0.071 0.19746,0.14666 0.29028,0.22717 0.11014,0.0955 0.2156,0.19674 0.31553,0.3029 0.0757,0.0804 0.11999,0.12184 0.16885,0.22087 0.028,0.0568 0.0638,0.13128 0.0678,0.21346 0.004,0.0745 -0.0122,0.15368 -0.0353,0.22457 -0.0239,0.0735 -0.0517,0.1437 -0.0879,0.21194 -0.0367,0.0691 -0.0859,0.13165 -0.13883,0.18931 -0.0605,0.0659 -0.12528,0.13061 -0.20193,0.1767 -0.081,0.0487 -0.15035,0.0955 -0.2398,0.12618 -0.0957,0.0327 -0.19811,0.0652 -0.29658,0.0883 -0.14949,0.035 -0.31975,0.0505 -0.47329,0.0505 -0.10236,-1e-5 -0.20731,-0.0139 -0.30289,-0.0505 -0.10244,-0.0393 -0.19785,-0.10143 -0.27767,-0.17669 -0.068,-0.0641 -0.11013,-0.11305 -0.16406,-0.18932 -0.0384,-0.0543 -0.0641,-0.12738 -0.0883,-0.18931 -0.0326,-0.0831 -0.0596,-0.18849 -0.0631,-0.27766 -0.003,-0.0674 0,0 0.0126,-0.20193 h -0.83298 c 0,0.45435 -0.0132,0.30348 0,0.45435 0.0127,0.14469 0.0415,0.28795 0.0757,0.42911 0.0301,0.12415 0.0835,0.26041 0.14514,0.37232 0.072,0.13071 0.15392,0.22824 0.25872,0.33445 0.0628,0.0637 0.13013,0.12337 0.20194,0.17669 0.0956,0.071 0.19367,0.14194 0.30291,0.18931 0.15027,0.0652 0.31247,0.105 0.47488,0.12621 0.18509,0.0242 0.37436,0.0195 0.56,0 0.1845,-0.0194 0.36957,-0.0537 0.54438,-0.11581 0.14194,-0.0505 0.30772,-0.12777 0.44007,-0.19971 0.14074,-0.0765 0.24719,-0.15453 0.37862,-0.24611 0.0809,-0.0564 0.18131,-0.16551 0.24611,-0.23979 0.0783,-0.0897 0.15735,-0.18326 0.22086,-0.28397 0.0878,-0.13919 0.13846,-0.23904 0.21456,-0.38494 0.0759,-0.14547 0.14307,-0.29693 0.18931,-0.45435 0.0214,-0.0728 0.0341,-0.14846 0.04,-0.22411 0.006,-0.079 0.001,-0.15865 -0.005,-0.23763 -0.007,-0.0914 -0.0148,-0.18369 -0.0379,-0.27243 -0.0229,-0.0881 -0.0566,-0.17395 -0.0988,-0.25459 -0.0467,-0.0892 -0.10344,-0.17405 -0.1693,-0.25024 -0.0751,-0.0869 -0.1672,-0.1578 -0.25458,-0.23241 -0.12011,-0.10255 -0.20343,-0.17191 -0.33464,-0.25981 -0.072,-0.0482 -0.18664,-0.1208 -0.26287,-0.1619 -0.0878,-0.0474 -0.2372,-0.10543 -0.32751,-0.14775 -0.11489,-0.0539 -0.18746,-0.095 -0.33094,-0.19951 -0.0755,-0.055 -0.20692,-0.19639 -0.26287,-0.27116 -0.0454,-0.0607 -0.0651,-0.13946 -0.0757,-0.21456 -0.01,-0.0709 -0.0307,-0.17902 -0.0231,-0.25025 0.0145,-0.13548 0.0493,-0.24121 0.0988,-0.36817 0.022,-0.0565 0.0636,-0.10363 0.10096,-0.15145 0.0385,-0.0493 0.11456,-0.11722 0.16637,-0.15222 0.10039,-0.0678 0.19247,-0.0951 0.30953,-0.12621 0.12365,-0.0329 0.21946,-0.0518 0.31615,-0.0542 0.0858,-0.002 0.21361,-5.4e-4 0.29705,0.0193 0.10621,0.0255 0.19916,0.0501 0.29767,0.0973 0.0653,0.0313 0.15266,0.10147 0.20346,0.15298 0.0467,0.0474 0.0789,0.10728 0.11359,0.16407 0.0372,0.061 0.0489,0.11199 0.0697,0.18039 z"
       id="path15800-0"
       sodipodi:nodetypes="ccssssssssssssssssssssssssssssssssccssssssssssssssssssssssssssssssssssssscc" />
    <path
       id="path12835-0"
       style="fill:#3d986c;stroke:#3d986c;stroke-width:0.264583px;stroke-linecap:butt;stroke-linejoin:miter;stroke-opacity:1;fill-opacity:1"
       d="m 136.34805,163.5921 -1.8928,2.73907 h 1.77542 z m 0.0637,-1.48696 h 0.96382 l -0.28558,6.6638 h -0.96382 l 0.0617,-1.43855 h -2.42309 l -0.99409,1.43855 h -0.96382 z" />
    <path
       style="fill:#038a3e;stroke:#038a3e;stroke-width:0.264583px;stroke-linecap:butt;stroke-linejoin:miter;stroke-opacity:1;fill-opacity:1"
       d="m 141.04578,136.20718 h 10.42435 l -1.71456,4.24369 h -6.82519 l -1.45407,3.59895 h 6.01076 l -1.56899,3.88338 h -6.01076 l -1.75453,4.34262 h 6.84389 l -1.84836,4.52857 h -10.42435 z"
       id="path2184-1" />
    <path
       id="path2931-4"
       style="fill:#038a3e;stroke:#038a3e;stroke-width:0.264583px;stroke-linecap:butt;stroke-linejoin:miter;stroke-opacity:1;fill-opacity:1;fill-rule:evenodd"
       d="m 119.92044,141.33016 -1.5567,7.75635 h -3.00601 z m 0.0345,-5.12298 h 4.03867 l -3.22838,20.59721 h -3.95041 l 0.73064,-3.64046 h -4.58624 l -2.14152,3.64046 h -3.73927 z" />
    <path
       style="fill:#038a3e;stroke:#038a3e;stroke-width:0.264583px;stroke-linecap:butt;stroke-linejoin:miter;stroke-opacity:1;fill-opacity:1"
       d="m 20.167246,136.20718 h 4.118502 l -3.268056,15.37197 8.922191,-15.37197 h 3.836734 L 20.80652,156.80439 h -3.992307 z"
       id="path1283" />
    <path
       style="fill:#038a3e;stroke:#038a3e;stroke-width:0.264583px;stroke-linecap:butt;stroke-linejoin:miter;stroke-opacity:1;fill-opacity:1"
       d="m 34.746415,136.20718 h 3.783893 l -8.32181,20.59721 h -3.783894 z"
       id="path1942" />
    <path
       style="fill:#038a3e;stroke:#038a3e;stroke-width:0.264583px;stroke-linecap:butt;stroke-linejoin:miter;stroke-opacity:1;fill-opacity:1"
       d="M 41.081859,136.20718 H 51.50621 l -1.714561,4.24369 h -6.825192 l -1.454069,3.59895 h 6.010755 l -1.568987,3.88338 h -6.010755 l -1.754534,4.34262 h 6.843893 l -1.84836,4.52857 H 32.760049 Z"
       id="path2184" />
    <path
       style="fill:#038a3e;stroke:#038a3e;stroke-width:0.264583px;stroke-linecap:butt;stroke-linejoin:miter;stroke-opacity:1;fill-opacity:1"
       d="m 52.960288,136.20718 h 3.735766 l 0.209751,11.72602 4.737618,-11.72602 h 3.533834 l -8.32181,20.59721 h -3.533836 l -0.283088,-11.5445 -4.664279,11.5445 h -3.735766 l 8.32181,-20.59721 v 0 0"
       id="path2396" />
    <path
       id="path2931"
       style="fill:#038a3e;stroke:#038a3e;stroke-width:0.264583px;stroke-linecap:butt;stroke-linejoin:miter;stroke-opacity:1;fill-opacity:1;fill-rule:evenodd"
       d="m 70.44356,141.33016 -1.5567,7.75635 h -3.006013 z m 0.03445,-5.12298 h 4.038666 l -3.228377,20.59721 h -3.950417 l 0.730639,-3.64046 h -4.58624 l -2.141516,3.64046 h -3.739272 z" />
    <path
       style="fill:#038a3e;stroke:#038a3e;stroke-width:0.264583px;stroke-linecap:butt;stroke-linejoin:miter;stroke-opacity:1;fill-opacity:1"
       d="m 80.32226,136.20718 h 4.685695 l -2.855773,12.81253 7.139424,-12.81253 h 5.16599 l -8.32181,20.59721 h -3.029 l 6.16677,-15.2633 -8.692046,15.2633 h -2.712979 l 3.327691,-15.2633 -6.166771,15.2633 h -3.029 z"
       id="path3391" />
    <path
       style="fill:#038a3e;stroke:#038a3e;stroke-width:0.264583px;stroke-linecap:butt;stroke-linejoin:miter;stroke-opacity:1;fill-opacity:1"
       d="m 112.59686,141.54109 c 0.0584,-0.43964 -0.0302,-2.13087 -0.21718,-3.5634 -0.0501,-0.38387 -0.31089,-0.78382 -0.60401,-1.03671 -0.42228,-0.36433 -0.77601,-0.42547 -1.31689,-0.54126 -0.67591,-0.14471 -1.70774,-0.19254 -2.17692,-0.1619 -0.45136,0.0295 -1.32342,0.0632 -1.76617,0.15578 -0.58464,0.12231 -1.06617,0.26716 -1.67894,0.5831 -0.45274,0.23343 -0.79212,0.44916 -1.20548,0.7468 -0.38733,0.2789 -0.56776,0.4196 -0.9069,0.75545 -0.38974,0.38597 -0.7511,0.80196 -1.08539,1.23684 -0.58026,0.75486 -1.07282,1.57347 -1.59023,2.37272 -0.34509,0.53306 -0.630128,0.98884 -0.938274,1.54408 -0.204512,0.3685 -0.448543,0.82532 -0.626709,1.20726 -0.21019,0.45059 -0.422278,0.90096 -0.605801,1.36305 -0.243591,0.61334 -0.279546,0.78674 -0.513495,1.40383 -0.08696,0.22937 -0.341756,0.91324 -0.420447,1.14558 -0.153873,0.45431 -0.298729,0.91017 -0.378624,1.38829 -0.139754,0.83635 -0.153586,1.19232 -0.176692,1.79216 -0.01523,0.39525 0.0089,0.79115 0.02524,1.18636 0.01702,0.4127 0.08618,1.08973 0.111417,1.16546 0.02524,0.0757 0.142344,0.51667 0.292445,0.80159 0.154546,0.29336 0.315326,0.60416 0.544862,0.84344 0.273816,0.28544 0.631443,0.56724 1.005336,0.69631 0.501062,0.17296 1.024908,0.20039 1.554529,0.17849 1.067103,-0.0442 2.194993,-0.10409 3.228763,-0.37213 0.42463,-0.1102 0.95981,-0.32692 1.34177,-0.5427 0.65838,-0.37194 1.10371,-0.70193 1.6894,-1.18023 0.47934,-0.39144 0.94443,-0.80957 1.3378,-1.28733 0.28902,-0.35102 0.53023,-0.74255 0.7396,-1.14618 1.17722,-2.26947 2.87319,-7.11139 2.87319,-7.11139 h -5.73307 l -1.51451,3.85528 h 2.66093 c 0,0 -0.32855,1.50396 -0.79927,2.11931 -0.26255,0.34322 -0.56792,0.54125 -0.92592,0.78326 -0.17068,0.11538 -0.42002,0.22027 -0.60147,0.31784 -0.23006,0.12371 -0.4185,0.23618 -0.67108,0.30276 -0.2365,0.0623 -0.77315,0.22058 -1.01759,0.22898 -0.48771,0.0168 -0.87333,0.0867 -1.32122,-0.10709 -0.34964,-0.15126 -0.60594,-0.4954 -0.7825,-0.83297 -0.18738,-0.35826 -0.2533,-0.78206 -0.25241,-1.18636 0.001,-0.55456 0.10281,-1.05434 0.2463,-1.59001 0.2002,-0.7474 0.5247,-1.52904 0.81386,-2.24673 0.2282,-0.5664 0.46898,-1.05955 0.73634,-1.60855 0.33894,-0.69601 0.68045,-1.46477 1.08106,-2.12721 0.32894,-0.54394 0.69034,-1.04591 1.10017,-1.53183 0.22757,-0.26982 0.48043,-0.56008 0.76771,-0.76516 0.29415,-0.20998 0.54429,-0.42111 0.87733,-0.56145 0.28224,-0.11893 0.5918,-0.20651 0.89392,-0.25675 0.23255,-0.0387 0.5589,-0.0257 0.77816,0.0609 0.32172,0.12704 0.57633,0.40379 0.78249,0.68153 0.10999,0.14817 0.19022,0.32404 0.22718,0.50483 0.086,0.4205 -0.0252,1.28733 -0.0252,1.28733 l 4.14276,-0.95127 c -1e-5,-6e-5 -1.8e-4,8e-5 -1.7e-4,2e-5 z"
       id="path3588"
       sodipodi:nodetypes="sssssssssssssssssssssssssssssccccsssssssssssssssssssccss" />
    <path
       style="fill:#038a3e;stroke:#038a3e;stroke-width:0.264583px;stroke-linecap:butt;stroke-linejoin:miter;stroke-opacity:1;fill-opacity:1"
       d="m 129.69497,136.20718 h 3.83674 l -6.33401,15.67723 h 6.23304 l -1.9878,4.91998 h -10.06978 z"
       id="path11728" />
    <path
       style="fill:#3d986c;stroke:#3d986c;stroke-width:0.264583px;stroke-linecap:butt;stroke-linejoin:miter;stroke-opacity:1;fill-opacity:1"
       d="m 75.172958,162.10514 h 4.038669 l -0.374692,1.02946 -4.202933,4.61355 h 2.909969 l -0.371535,1.02079 h -4.163949 l 0.371536,-1.02079 4.202932,-4.61355 h -2.784689 z"
       id="path12045" />
    <path
       style="fill:#3d986c;stroke:#3d986c;stroke-width:0.264583px;stroke-linecap:butt;stroke-linejoin:miter;stroke-opacity:1;fill-opacity:1"
       d="m 85.648254,162.10514 h 1.161116 l -1.034754,2.84296 3.256021,-2.84296 h 1.262084 l -2.987006,2.60807 1.068639,4.05573 h -1.161116 l -0.851471,-3.23153 -1.175079,1.02601 -0.802743,2.20552 h -1.161118 z"
       id="path12317" />
    <path
       style="fill:#3d986c;stroke:#3d986c;stroke-width:0.264583px;stroke-linecap:butt;stroke-linejoin:miter;stroke-opacity:1;fill-opacity:1"
       d="m 91.201422,162.10514 h 1.211598 l -2.053889,5.64301 h 2.65969 l -0.371533,1.02079 h -3.871291 z"
       id="path12438" />
    <path
       style="fill:#3d986c;stroke:#3d986c;stroke-width:0.264583px;stroke-linecap:butt;stroke-linejoin:miter;stroke-opacity:1;fill-opacity:1"
       d="m 118.56127,162.10514 h 1.2116 l -2.05389,5.64301 h 2.65969 l -0.37153,1.02079 h -3.8713 z"
       id="path12438-1" />
    <path
       style="fill:#3d986c;stroke:#3d986c;stroke-width:0.264583px;stroke-linecap:butt;stroke-linejoin:miter;stroke-opacity:1;fill-opacity:1"
       d="m 95.896371,162.10514 h 3.937701 l -0.374692,1.02946 h -3.029001 l -0.640207,1.75895 h 2.628985 l -0.355521,0.97678 h -2.628982 l -0.683471,1.87782 h 3.029 l -0.371536,1.02079 h -3.937701 z"
       id="path12565" />
    <path
       id="path12835"
       style="fill:#3d986c;stroke:#3d986c;stroke-width:0.264583px;stroke-linecap:butt;stroke-linejoin:miter;stroke-opacity:1;fill-opacity:1"
       d="m 114.71562,163.5921 -1.8928,2.73907 h 1.77542 z m 0.0637,-1.48696 h 0.96382 l -0.28558,6.6638 h -0.96382 l 0.0617,-1.43855 h -2.42309 l -0.99409,1.43855 h -0.96382 z" />
    <path
       style="fill:#3d986c;stroke:#3d986c;stroke-width:0.264583px;stroke-linecap:butt;stroke-linejoin:miter;stroke-opacity:1;fill-opacity:1"
       d="m 128.9868,162.10514 h 1.07091 l 0.67508,4.22603 1.53815,-4.22603 h 0.99952 l -2.42543,6.6638 h -0.99952 l -0.5787,-4.49083 -1.63453,4.49083 h -1.07091 z"
       id="path13104" />
    <path
       style="fill:#3d986c;stroke:#3d986c;stroke-width:0.264583px;stroke-linecap:butt;stroke-linejoin:miter;stroke-opacity:1;fill-opacity:1"
       d="m 80.221293,162.10514 h 1.092009 c 0,0 -1.183995,2.71286 -1.509628,4.14766 -0.04298,0.18936 -0.085,0.42369 -0.09444,0.61764 -0.0064,0.13073 0.0055,0.22797 0.03786,0.3548 0.01842,0.0722 0.09167,0.2057 0.151711,0.24989 0.134383,0.0989 0.167036,0.11251 0.332627,0.133 0.242372,0.03 0.456889,0.0188 0.693928,-0.04 0.114929,-0.0285 0.311826,-0.12104 0.39395,-0.20634 0.09792,-0.10171 0.198355,-0.23525 0.265037,-0.3597 0.0953,-0.17785 0.201291,-0.35059 0.283189,-0.535 0.628017,-1.41409 1.587595,-4.36188 1.587595,-4.36188 h 1.142307 l -1.365414,3.75144 c 0,0 -0.227792,0.55839 -0.344575,0.80467 -0.154178,0.32515 -0.272218,0.60817 -0.470127,0.90871 -0.183703,0.27897 -0.399543,0.54358 -0.656283,0.75725 -0.17153,0.14276 -0.365904,0.26732 -0.577136,0.33931 -0.25826,0.088 -0.337866,0.0853 -0.610177,0.10242 -0.222668,0.014 -0.650107,0.0295 -0.871254,0 -0.207776,-0.0277 -0.418728,-0.0724 -0.606851,-0.16489 -0.110529,-0.0543 -0.222466,-0.12322 -0.294503,-0.22311 -0.102895,-0.14268 -0.179324,-0.30338 -0.220044,-0.47452 -0.05424,-0.22796 -0.0735,-0.48843 -0.04768,-0.72133 0.02327,-0.20994 0.04628,-0.39502 0.09369,-0.59956 0.356704,-1.53903 1.594203,-4.48043 1.594203,-4.48043 z"
       id="path13652"
       sodipodi:nodetypes="ccssssssssscccssssssssssscc" />
    <path
       style="fill:#3d986c;stroke:#3d986c;stroke-width:0.264583px;stroke-linecap:butt;stroke-linejoin:miter;stroke-opacity:1;fill-opacity:1"
       d="m 103.18224,163.87418 0.92367,-0.0402 c 0.007,-0.4668 0.0249,-0.31221 0.007,-0.4668 -0.0139,-0.12061 -0.0462,-0.2395 -0.0883,-0.35338 -0.062,-0.16764 -0.12577,-0.34196 -0.2398,-0.4796 -0.1186,-0.14315 -0.27136,-0.26823 -0.44374,-0.33783 -0.24232,-0.0978 -0.51741,-0.0984 -0.77864,-0.0913 -0.20974,0.006 -0.37834,0.0328 -0.58456,0.0716 -0.1561,0.0293 -0.3534,0.0761 -0.50267,0.1304 -0.15746,0.0572 -0.30323,0.14553 -0.44173,0.2398 -0.14071,0.0958 -0.27903,0.20015 -0.39124,0.32814 -0.10848,0.12374 -0.19136,0.26935 -0.26504,0.41649 -0.0745,0.14881 -0.14321,0.30395 -0.17669,0.46697 -0.039,0.18974 -0.0412,0.38752 -0.0252,0.58056 0.0117,0.14143 0.0375,0.28397 0.0883,0.41648 0.0452,0.11791 0.10746,0.23198 0.18931,0.32814 0.095,0.11157 0.22202,0.19182 0.34076,0.27766 0.19011,0.13742 0.40173,0.24309 0.59318,0.37863 0.10028,0.071 0.19746,0.14666 0.29028,0.22717 0.11014,0.0955 0.2156,0.19674 0.31553,0.3029 0.0757,0.0804 0.11999,0.12184 0.16885,0.22087 0.028,0.0568 0.0638,0.13128 0.0678,0.21346 0.004,0.0745 -0.0122,0.15368 -0.0353,0.22457 -0.0239,0.0735 -0.0517,0.1437 -0.0879,0.21194 -0.0367,0.0691 -0.0859,0.13165 -0.13883,0.18931 -0.0605,0.0659 -0.12528,0.13061 -0.20193,0.1767 -0.081,0.0487 -0.15035,0.0955 -0.2398,0.12618 -0.0957,0.0327 -0.19811,0.0652 -0.29658,0.0883 -0.14949,0.035 -0.31975,0.0505 -0.47329,0.0505 -0.10236,-1e-5 -0.20731,-0.0139 -0.30289,-0.0505 -0.10244,-0.0393 -0.19785,-0.10143 -0.27767,-0.17669 -0.068,-0.0641 -0.11013,-0.11305 -0.16406,-0.18932 -0.03841,-0.0543 -0.06407,-0.12738 -0.08835,-0.18931 -0.03258,-0.0831 -0.05955,-0.18849 -0.0631,-0.27766 -0.0027,-0.0674 0,0 0.01262,-0.20193 h -0.832976 c 0,0.45435 -0.01321,0.30348 0,0.45435 0.01267,0.14469 0.04151,0.28795 0.07572,0.42911 0.03009,0.12415 0.08353,0.26041 0.14514,0.37232 0.07196,0.13071 0.153917,0.22824 0.258725,0.33445 0.06282,0.0637 0.130126,0.12337 0.201936,0.17669 0.0956,0.071 0.19367,0.14194 0.302905,0.18931 0.15027,0.0652 0.31247,0.105 0.47488,0.12621 0.18509,0.0242 0.37436,0.0195 0.56,0 0.1845,-0.0194 0.36957,-0.0537 0.54438,-0.11581 0.14194,-0.0505 0.30772,-0.12777 0.44007,-0.19971 0.14074,-0.0765 0.24719,-0.15453 0.37862,-0.24611 0.0809,-0.0564 0.18131,-0.16551 0.24611,-0.23979 0.0783,-0.0897 0.15735,-0.18326 0.22086,-0.28397 0.0878,-0.13919 0.13846,-0.23904 0.21456,-0.38494 0.0759,-0.14547 0.14307,-0.29693 0.18931,-0.45435 0.0214,-0.0728 0.0341,-0.14846 0.04,-0.22411 0.006,-0.079 0.001,-0.15865 -0.005,-0.23763 -0.007,-0.0914 -0.0148,-0.18369 -0.0379,-0.27243 -0.0229,-0.0881 -0.0566,-0.17395 -0.0988,-0.25459 -0.0467,-0.0892 -0.10344,-0.17405 -0.1693,-0.25024 -0.0751,-0.0869 -0.1672,-0.1578 -0.25458,-0.23241 -0.12011,-0.10255 -0.20343,-0.17191 -0.33464,-0.25981 -0.072,-0.0482 -0.18664,-0.1208 -0.26287,-0.1619 -0.0878,-0.0474 -0.2372,-0.10543 -0.32751,-0.14775 -0.11489,-0.0539 -0.18746,-0.095 -0.33094,-0.19951 -0.0755,-0.055 -0.20692,-0.19639 -0.26287,-0.27116 -0.0454,-0.0607 -0.0651,-0.13946 -0.0757,-0.21456 -0.01,-0.0709 -0.0307,-0.17902 -0.0231,-0.25025 0.0145,-0.13548 0.0493,-0.24121 0.0988,-0.36817 0.022,-0.0565 0.0636,-0.10363 0.10096,-0.15145 0.0385,-0.0493 0.11456,-0.11722 0.16637,-0.15222 0.10039,-0.0678 0.19247,-0.0951 0.30953,-0.12621 0.12365,-0.0329 0.21946,-0.0518 0.31615,-0.0542 0.0858,-0.002 0.21361,-5.4e-4 0.29705,0.0193 0.10621,0.0255 0.19916,0.0501 0.29767,0.0973 0.0653,0.0313 0.15266,0.10147 0.20346,0.15298 0.0467,0.0474 0.0789,0.10728 0.11359,0.16407 0.0372,0.061 0.0489,0.11199 0.0697,0.18039 z"
       id="path15800"
       sodipodi:nodetypes="ccssssssssssssssssssssssssssssssssccssssssssssssssssssssssssssssssssssssscc" />
    <path
       id="path27931"
       style="fill:#3d986c;stroke:#3d986c;stroke-width:0.265;stroke-linecap:butt;stroke-linejoin:miter;stroke-opacity:1;stroke-miterlimit:4;stroke-dasharray:none;fill-opacity:1;fill-rule:evenodd"
       d="m 125.04789,163.34089 c 0.21368,0.007 0.41557,0.0334 0.60584,0.1309 0.1194,0.0612 0.22542,0.14943 0.30996,0.2536 0.0726,0.0894 0.10411,0.18395 0.1409,0.29306 0.0577,0.17122 0.0864,0.35471 0.0845,0.53539 -0.002,0.18096 -0.0147,0.28373 -0.0451,0.46213 -0.0163,0.0957 -0.0731,0.23647 -0.10844,0.32686 -0.0667,0.17063 -0.11347,0.3272 -0.19219,0.49264 -0.0814,0.17107 -0.17881,0.32994 -0.27421,0.49361 -0.12678,0.2175 -0.27795,0.43702 -0.46212,0.60866 -0.17343,0.16163 -0.35805,0.33181 -0.56921,0.43958 -0.14637,0.0747 -0.30038,0.14267 -0.46212,0.17176 -0.18859,0.0339 -0.38768,0.041 -0.57484,0 -0.15557,-0.0341 -0.30798,-0.10249 -0.43395,-0.19994 -0.12671,-0.098 -0.23718,-0.20541 -0.32687,-0.33814 -0.072,-0.10658 -0.1167,-0.25211 -0.16344,-0.37196 -0.04,-0.10272 -0.0517,-0.22234 -0.0563,-0.3325 -0.007,-0.15583 0.009,-0.30058 0.0507,-0.45086 0.0455,-0.16402 0.10596,-0.3322 0.16908,-0.4903 0.0703,-0.17624 0.14838,-0.34203 0.23106,-0.51285 0.0814,-0.1682 0.18219,-0.32654 0.28178,-0.48467 0.0872,-0.13843 0.14877,-0.22381 0.25361,-0.34941 0.1047,-0.12544 0.23811,-0.2726 0.37196,-0.36632 0.10738,-0.0752 0.23148,-0.15912 0.35505,-0.20288 0.0813,-0.0288 0.16636,-0.0468 0.25147,-0.0606 0.18589,-0.0301 0.3747,-0.0541 0.56291,-0.0478 z m 0.40489,-1.23575 c 0.33837,0.0114 0.65807,0.0529 0.95936,0.20729 0.18908,0.0969 0.35696,0.23662 0.49084,0.40159 0.1149,0.14158 0.16486,0.29128 0.22311,0.46406 0.0914,0.27114 0.13682,0.56169 0.13382,0.84781 -0.003,0.28655 -0.0233,0.44929 -0.0714,0.73179 -0.0258,0.1515 -0.11575,0.37447 -0.17173,0.5176 -0.10566,0.2702 -0.17967,0.51813 -0.30433,0.78011 -0.1289,0.27089 -0.28315,0.52247 -0.43422,0.78165 -0.20076,0.34442 -0.44014,0.69203 -0.73179,0.96383 -0.27463,0.25594 -0.56698,0.52543 -0.90135,0.69609 -0.23179,0.1183 -0.47567,0.22592 -0.73179,0.27198 -0.29864,0.0537 -0.6139,0.065 -0.91028,0 -0.24635,-0.054 -0.48769,-0.1623 -0.68717,-0.31661 -0.20065,-0.15521 -0.37557,-0.32527 -0.51761,-0.53545 -0.11406,-0.16878 -0.18479,-0.39923 -0.2588,-0.58901 -0.0634,-0.16267 -0.0819,-0.35208 -0.0892,-0.52653 -0.0103,-0.24676 0.0142,-0.47597 0.0803,-0.71394 0.0721,-0.25974 0.16779,-0.52605 0.26773,-0.77641 0.11141,-0.27909 0.23497,-0.54162 0.3659,-0.81211 0.12893,-0.26636 0.2885,-0.51709 0.44621,-0.76749 0.13808,-0.21922 0.23557,-0.35441 0.40159,-0.55331 0.1658,-0.19863 0.37706,-0.43167 0.58901,-0.58007 0.17004,-0.11906 0.36656,-0.25198 0.56223,-0.32128 0.1287,-0.0456 0.26344,-0.0741 0.39822,-0.0959 0.29436,-0.0477 0.59335,-0.0857 0.89138,-0.0757 z" />
    <path
       style="fill:#3d986c;stroke:#3d986c;stroke-width:0.065;stroke-linecap:butt;stroke-linejoin:miter;stroke-opacity:1;stroke-miterlimit:4;stroke-dasharray:none;fill-opacity:1"
       d="m 76.914634,160.31298 h 0.656285 l 0.04566,0.89808 0.812551,-0.89808 h 0.706768 l -1.141886,1.26208 h -1.015209 z"
       id="path28411" />
    <path
       style="fill:#3d986c;stroke:#3d986c;stroke-width:0.065;stroke-linecap:butt;stroke-linejoin:miter;stroke-opacity:1;stroke-miterlimit:4;stroke-dasharray:none;fill-opacity:1"
       d="m 81.840389,160.65698 h 2.141855 l -0.334158,0.91808 h -2.141852 z"
       id="path28528" />
    <path
       style="fill:#3d986c;stroke:#3d986c;stroke-width:0.165;stroke-linecap:butt;stroke-linejoin:miter;stroke-opacity:1;stroke-miterlimit:4;stroke-dasharray:none;fill-opacity:1"
       d="m 97.914406,160.65698 h 0.91 l -0.334158,0.91808 h -0.91 z"
       id="path28645" />
    <path
       style="fill:#00923f;stroke:#00923f;stroke-width:0.264583px;stroke-linecap:butt;stroke-linejoin:miter;stroke-opacity:1;fill-opacity:1"
       d="m 162.00431,126.11051 h 30.98262 l -12.69822,44.54453 H 149.3061 Z"
       id="path29022" />
    <path
       style="fill:#ffffff;stroke:#00923f;stroke-width:0.264583px;stroke-linecap:butt;stroke-linejoin:miter;stroke-opacity:1;fill-opacity:1"
       d="m 185.53103,131.8851 -5.56875,4.06947 c -0.36822,0.42744 -0.53858,0.9162 -0.78534,1.42355 -0.22828,0.46936 -0.45562,1.01631 -0.64255,1.50362 -0.22372,0.58323 -0.40256,1.18336 -0.57115,1.78485 -0.19161,0.68362 -0.34035,1.37859 -0.49976,2.07043 -0.2243,0.97345 -0.45544,1.9459 -0.64255,2.92717 -0.16709,0.87624 -0.29015,1.76032 -0.42836,2.64158 -0.12307,0.78471 -0.22364,1.57298 -0.35698,2.35601 -0.15044,0.88343 -0.31183,1.76536 -0.49975,2.64159 -0.1283,0.59824 -0.25383,1.19843 -0.42837,1.78485 -0.20185,0.67817 -0.41979,1.35551 -0.71394,1.99904 -0.26138,0.57183 -0.57726,1.12034 -0.92813,1.64207 -0.40653,0.60448 -0.61403,0.97585 -1.07883,1.53677 -0.31872,0.38463 -0.88721,0.97572 -1.25933,1.30896 -0.23171,0.2075 -0.40537,0.38705 -0.66697,0.55532 -0.37884,0.24368 -0.84321,0.49922 -1.26067,0.66842 -0.38518,0.15612 -0.55333,0.25659 -0.96128,0.33606 -0.41957,0.0817 -0.99331,0.25533 -1.4187,0.2973 -0.55114,0.0544 -1.05563,0.0182 -1.60944,0.0209 -0.35716,0.002 -0.86932,-0.0826 -1.22236,-0.13667 -0.32959,-0.0505 -0.65262,-0.14799 -0.96382,-0.26773 -0.33524,-0.12899 -0.66029,-0.28984 -0.96382,-0.48191 -0.21079,-0.13339 -0.40055,-0.29821 -0.58901,-0.46163 -0.19297,-0.16733 -0.3767,-0.34556 -0.5533,-0.53008 -0.28695,-0.29982 -0.56733,-0.60751 -0.82104,-0.93593 -0.27238,-0.35258 -0.55241,-0.7071 -0.74964,-1.10661 -0.1166,-0.23618 -0.18986,-0.49317 -0.24988,-0.74964 -0.0985,-0.4211 -0.14144,-0.87807 -0.128,-1.31034 0.013,-0.41868 0.0826,-0.80405 0.1994,-1.20631 0.12082,-0.41594 0.30396,-0.7465 0.4893,-1.13797 0.1642,-0.34683 0.37166,-0.69697 0.57116,-1.02477 0.25052,-0.41163 0.52671,-0.8426 0.76009,-1.26418 l 0.55331,-0.99952 1.57067,1.92764 0.002,-9.2305 -5.14931,8.43072 c -0.26355,0.51804 -0.5161,1.01592 -0.70676,1.56499 -0.17819,0.51314 -0.33473,0.96572 -0.47959,1.48925 -0.0882,0.31864 -0.20046,0.71344 -0.27766,1.03491 -0.0925,0.38513 -0.15962,0.76731 -0.20193,1.16112 -0.0324,0.30117 -0.0159,0.60622 0,0.9087 0.0169,0.32105 0.0429,0.64298 0.10096,0.95918 0.0684,0.37235 0.18375,0.73474 0.29028,1.09802 0.0386,0.13149 0.0756,0.26389 0.12621,0.39124 0.0723,0.18187 0.21339,0.40652 0.30289,0.58056 0.12315,0.23947 0.29822,0.45368 0.44174,0.68152 0.16239,0.2578 0.31702,0.42901 0.50484,0.66891 0.24275,0.31007 0.4616,0.52129 0.74462,0.79511 0.23657,0.22888 0.4957,0.47878 0.74463,0.69414 0.25213,0.21813 0.57512,0.42973 0.85822,0.60581 0.38215,0.23769 0.87763,0.46492 1.31256,0.58056 0.46923,0.12476 0.7547,0.22039 1.23685,0.27766 0.62864,0.0747 1.20958,0.0758 1.84264,0.0757 0.4727,-8e-5 0.9929,7.3e-4 1.46402,-0.0379 0.40391,-0.0331 0.83774,-0.081 1.23683,-0.15145 0.37789,-0.0667 0.72056,-0.13349 1.0854,-0.25242 0.35954,-0.1172 0.71668,-0.24566 1.06015,-0.40387 0.38302,-0.17643 0.74847,-0.38976 1.11063,-0.6058 0.34473,-0.20564 0.68064,-0.42635 1.00967,-0.65628 0.34484,-0.24098 0.68286,-0.49234 1.00967,-0.75725 0.27792,-0.22528 0.54301,-0.46611 0.80773,-0.70677 0.30828,-0.28026 0.62128,-0.55659 0.9087,-0.85821 0.16054,-0.16847 0.31522,-0.34353 0.45435,-0.53008 0.18557,-0.24882 0.33975,-0.51963 0.50483,-0.78249 0.18879,-0.30062 0.37718,-0.60165 0.55532,-0.9087 0.19275,-0.33224 0.38012,-0.66785 0.55532,-1.00967 0.17853,-0.34832 0.35032,-0.70053 0.50483,-1.06015 0.18504,-0.4307 0.29298,-0.83875 0.4291,-1.28732 0.1553,-0.51175 0.31701,-1.06732 0.42912,-1.59023 0.0675,-0.3146 0.13603,-0.62912 0.19207,-0.94596 0.0555,-0.31402 0.11892,-0.62797 0.14279,-0.94597 0.0258,-0.34411 0.10531,-0.91796 0.12621,-1.2624 0.0417,-0.68798 0.10636,-1.1677 0.1994,-1.85064 0.10234,-0.75118 0.19701,-1.50424 0.33912,-2.24892 0.12363,-0.64785 0.22368,-1.25941 0.37048,-1.90241 0.21932,-0.96067 0.41709,-1.92634 0.64926,-2.88398 0.2041,-0.84187 0.41731,-1.68183 0.65369,-2.51521 0.17666,-0.62281 0.35318,-1.24667 0.57115,-1.85625 0.19046,-0.53264 0.31534,-1.10924 0.64255,-1.57067 l 3.78389,-3.35553 c 0.14355,-0.1273 0.22491,-0.31774 0.28558,-0.49976 0.0607,-0.18202 0.0804,-0.3795 0.0714,-0.57115 -0.0103,-0.21916 0.0284,-0.50526 -0.14278,-0.64255 -0.0743,-0.0596 -0.20893,-0.0562 -0.28588,0 z"
       id="path29024"
       sodipodi:nodetypes="scsssssssssssssssssssssssssssssssccccsssssssssssssssssssssssssssssssssssssssssscssscss" />
  </g>
</svg>
